<?xml version="1.0" encoding="UTF-8" standalone="no"?>
<!DOCTYPE svg PUBLIC "-//W3C//DTD SVG 1.1//EN"
 "http://www.w3.org/Graphics/SVG/1.1/DTD/svg11.dtd">
<!-- Generated by graphviz version 2.40.1 (20161225.0304)
 -->
<!-- Title: public.userdatacolor Pages: 1 -->
<svg width="565pt" height="670pt"
 viewBox="0.00 0.00 564.83 669.96" xmlns="http://www.w3.org/2000/svg" xmlns:xlink="http://www.w3.org/1999/xlink">
<g id="graph0" class="graph" transform="scale(1 1) rotate(0) translate(4 665.9587)">
<title>public.userdatacolor</title>
<polygon fill="#ffffff" stroke="transparent" points="-4,4 -4,-665.9587 560.8335,-665.9587 560.8335,4 -4,4"/>
<!-- public.userdatacolor -->
<g id="node1" class="node">
<title>public.userdatacolor</title>
<polygon fill="#efefef" stroke="transparent" points="184,-580.4587 184,-615.4587 486,-615.4587 486,-580.4587 184,-580.4587"/>
<polygon fill="none" stroke="#000000" points="184,-580.4587 184,-615.4587 486,-615.4587 486,-580.4587 184,-580.4587"/>
<text text-anchor="start" x="190.6993" y="-593.2587" font-family="Arial Bold" font-size="18.00" fill="#000000">public.userdatacolor</text>
<text text-anchor="start" x="351.7327" y="-593.2587" font-family="Arial" font-size="14.00" fill="#000000">    </text>
<text text-anchor="start" x="385.9375" y="-593.2587" font-family="Arial" font-size="14.00" fill="#666666">[BASE TABLE]</text>
<polygon fill="none" stroke="#000000" points="184,-550.4587 184,-580.4587 486,-580.4587 486,-550.4587 184,-550.4587"/>
<text text-anchor="start" x="191" y="-561.8587" font-family="Arial" font-size="14.00" fill="#000000">value </text>
<text text-anchor="start" x="228.345" y="-561.8587" font-family="Arial" font-size="14.00" fill="#666666">[varchar]</text>
<polygon fill="none" stroke="#000000" points="184,-520.4587 184,-550.4587 486,-550.4587 486,-520.4587 184,-520.4587"/>
<text text-anchor="start" x="191" y="-531.8587" font-family="Arial" font-size="14.00" fill="#000000">for_date </text>
<text text-anchor="start" x="246.2454" y="-531.8587" font-family="Arial" font-size="14.00" fill="#666666">[timestamp without time zone]</text>
<polygon fill="none" stroke="#000000" points="184,-490.4587 184,-520.4587 486,-520.4587 486,-490.4587 184,-490.4587"/>
<text text-anchor="start" x="191" y="-501.8587" font-family="Arial" font-size="14.00" fill="#000000">created_at </text>
<text text-anchor="start" x="261.028" y="-501.8587" font-family="Arial" font-size="14.00" fill="#666666">[timestamp without time zone]</text>
<polygon fill="none" stroke="#000000" points="184,-460.4587 184,-490.4587 486,-490.4587 486,-460.4587 184,-460.4587"/>
<text text-anchor="start" x="191" y="-471.8587" font-family="Arial" font-size="14.00" fill="#000000">updated_at </text>
<text text-anchor="start" x="264.9326" y="-471.8587" font-family="Arial" font-size="14.00" fill="#666666">[timestamp without time zone]</text>
<polygon fill="none" stroke="#000000" points="184,-430.4587 184,-460.4587 486,-460.4587 486,-430.4587 184,-430.4587"/>
<text text-anchor="start" x="191" y="-441.8587" font-family="Arial" font-size="14.00" fill="#000000">deleted_at </text>
<text text-anchor="start" x="260.2566" y="-441.8587" font-family="Arial" font-size="14.00" fill="#666666">[timestamp without time zone]</text>
<polygon fill="none" stroke="#000000" points="184,-400.4587 184,-430.4587 486,-430.4587 486,-400.4587 184,-400.4587"/>
<text text-anchor="start" x="191" y="-411.8587" font-family="Arial" font-size="14.00" fill="#000000">id </text>
<text text-anchor="start" x="205.7798" y="-411.8587" font-family="Arial" font-size="14.00" fill="#666666">[integer]</text>
<polygon fill="none" stroke="#000000" points="184,-370.4587 184,-400.4587 486,-400.4587 486,-370.4587 184,-370.4587"/>
<text text-anchor="start" x="191" y="-381.8587" font-family="Arial" font-size="14.00" fill="#000000">user_question_id </text>
<text text-anchor="start" x="301.481" y="-381.8587" font-family="Arial" font-size="14.00" fill="#666666">[integer]</text>
<polygon fill="none" stroke="#000000" stroke-width="3" points="182.5,-369.4587 182.5,-617.4587 487.5,-617.4587 487.5,-369.4587 182.5,-369.4587"/>
</g>
<!-- public.userquestioncolor -->
<g id="node2" class="node">
<title>public.userquestioncolor</title>
<polygon fill="#efefef" stroke="transparent" points="167,-210.4587 167,-245.4587 502,-245.4587 502,-210.4587 167,-210.4587"/>
<polygon fill="none" stroke="#000000" points="167,-210.4587 167,-245.4587 502,-245.4587 502,-210.4587 167,-210.4587"/>
<text text-anchor="start" x="173.696" y="-223.2587" font-family="Arial Bold" font-size="18.00" fill="#000000">public.userquestioncolor</text>
<text text-anchor="start" x="367.736" y="-223.2587" font-family="Arial" font-size="14.00" fill="#000000">    </text>
<text text-anchor="start" x="401.9408" y="-223.2587" font-family="Arial" font-size="14.00" fill="#666666">[BASE TABLE]</text>
<polygon fill="none" stroke="#000000" points="167,-180.4587 167,-210.4587 502,-210.4587 502,-180.4587 167,-180.4587"/>
<text text-anchor="start" x="174" y="-191.8587" font-family="Arial" font-size="14.00" fill="#000000">question_text    </text>
<text text-anchor="start" x="291.4614" y="-191.8587" font-family="Arial" font-size="14.00" fill="#666666">[varchar]</text>
<polygon fill="none" stroke="#000000" points="167,-150.4587 167,-180.4587 502,-180.4587 502,-150.4587 167,-150.4587"/>
<text text-anchor="start" x="174" y="-161.8587" font-family="Arial" font-size="14.00" fill="#000000">created_at    </text>
<text text-anchor="start" x="274.3422" y="-161.8587" font-family="Arial" font-size="14.00" fill="#666666">[timestamp without time zone]</text>
<polygon fill="none" stroke="#000000" points="167,-120.4587 167,-150.4587 502,-150.4587 502,-120.4587 167,-120.4587"/>
<text text-anchor="start" x="174" y="-131.8587" font-family="Arial" font-size="14.00" fill="#000000">updated_at    </text>
<text text-anchor="start" x="278.2468" y="-131.8587" font-family="Arial" font-size="14.00" fill="#666666">[timestamp without time zone]</text>
<polygon fill="none" stroke="#000000" points="167,-90.4587 167,-120.4587 502,-120.4587 502,-90.4587 167,-90.4587"/>
<text text-anchor="start" x="174" y="-101.8587" font-family="Arial" font-size="14.00" fill="#000000">deleted_at    </text>
<text text-anchor="start" x="273.5708" y="-101.8587" font-family="Arial" font-size="14.00" fill="#666666">[timestamp without time zone]</text>
<polygon fill="none" stroke="#000000" points="167,-60.4587 167,-90.4587 502,-90.4587 502,-60.4587 167,-60.4587"/>
<text text-anchor="start" x="174" y="-71.8587" font-family="Arial" font-size="14.00" fill="#000000">id    </text>
<text text-anchor="start" x="219.094" y="-71.8587" font-family="Arial" font-size="14.00" fill="#666666">[integer]</text>
</g>
<!-- public.userdatacolor&#45;&gt;public.userquestioncolor -->
<g id="edge1" class="edge">
<title>public.userdatacolor:user_question_id&#45;&gt;public.userquestioncolor:id</title>
<path fill="none" stroke="#000000" d="M335.5879,-360.3971C345.9373,-277.6004 490.1341,-368.4431 544.5,-288.9587 558.8334,-268.0029 562.4527,-78.4114 544.5,-60.4587 478.6605,5.3808 335,32.6524 335,-60.4587"/>
<polygon fill="#000000" stroke="#000000" points="335.5834,-360.4757 330.5077,-370.1962 335.2917,-365.4672 335,-370.4587 335,-370.4587 335,-370.4587 335.2917,-365.4672 339.4923,-370.7212 335.5834,-360.4757 335.5834,-360.4757"/>
<text text-anchor="start" x="7.429" y="-380.4587" font-family="Arial" font-size="10.00" fill="#000000">FOREIGN KEY (user_question_id) REFERENCES userquestioncolor(id)</text>
</g>
</g>
</svg>
