<?xml version="1.0" encoding="UTF-8" standalone="no"?>
<!DOCTYPE svg PUBLIC "-//W3C//DTD SVG 1.1//EN"
 "http://www.w3.org/Graphics/SVG/1.1/DTD/svg11.dtd">
<!-- Generated by graphviz version 2.40.1 (20161225.0304)
 -->
<!-- Title: public.userquestionanswersetcolor Pages: 1 -->
<svg width="996pt" height="532pt"
 viewBox="0.00 0.00 996.00 532.00" xmlns="http://www.w3.org/2000/svg" xmlns:xlink="http://www.w3.org/1999/xlink">
<g id="graph0" class="graph" transform="scale(1 1) rotate(0) translate(4 528)">
<title>public.userquestionanswersetcolor</title>
<polygon fill="#ffffff" stroke="transparent" points="-4,4 -4,-528 992,-528 992,4 -4,4"/>
<!-- public.userquestionanswersetcolor -->
<g id="node1" class="node">
<title>public.userquestionanswersetcolor</title>
<polygon fill="#efefef" stroke="transparent" points="335,-442.5 335,-477.5 752,-477.5 752,-442.5 335,-442.5"/>
<polygon fill="none" stroke="#000000" points="335,-442.5 335,-477.5 752,-477.5 752,-442.5 335,-442.5"/>
<text text-anchor="start" x="341.6893" y="-455.3" font-family="Arial Bold" font-size="18.00" fill="#000000">public.userquestionanswersetcolor</text>
<text text-anchor="start" x="617.7427" y="-455.3" font-family="Arial" font-size="14.00" fill="#000000">    </text>
<text text-anchor="start" x="651.9475" y="-455.3" font-family="Arial" font-size="14.00" fill="#666666">[BASE TABLE]</text>
<polygon fill="none" stroke="#000000" points="335,-412.5 335,-442.5 752,-442.5 752,-412.5 335,-412.5"/>
<text text-anchor="start" x="342" y="-423.9" font-family="Arial" font-size="14.00" fill="#000000">id </text>
<text text-anchor="start" x="356.7798" y="-423.9" font-family="Arial" font-size="14.00" fill="#666666">[integer]</text>
<polygon fill="none" stroke="#000000" points="335,-382.5 335,-412.5 752,-412.5 752,-382.5 335,-382.5"/>
<text text-anchor="start" x="342" y="-393.9" font-family="Arial" font-size="14.00" fill="#000000">user_question_id </text>
<text text-anchor="start" x="452.481" y="-393.9" font-family="Arial" font-size="14.00" fill="#666666">[integer]</text>
<polygon fill="none" stroke="#000000" points="335,-352.5 335,-382.5 752,-382.5 752,-352.5 335,-352.5"/>
<text text-anchor="start" x="342" y="-363.9" font-family="Arial" font-size="14.00" fill="#000000">color_id </text>
<text text-anchor="start" x="394.8948" y="-363.9" font-family="Arial" font-size="14.00" fill="#666666">[integer]</text>
<polygon fill="none" stroke="#000000" stroke-width="3" points="333,-351.5 333,-479.5 753,-479.5 753,-351.5 333,-351.5"/>
</g>
<!-- public.userquestioncolor -->
<g id="node2" class="node">
<title>public.userquestioncolor</title>
<polygon fill="#efefef" stroke="transparent" points="166,-192.5 166,-227.5 501,-227.5 501,-192.5 166,-192.5"/>
<polygon fill="none" stroke="#000000" points="166,-192.5 166,-227.5 501,-227.5 501,-192.5 166,-192.5"/>
<text text-anchor="start" x="172.696" y="-205.3" font-family="Arial Bold" font-size="18.00" fill="#000000">public.userquestioncolor</text>
<text text-anchor="start" x="366.736" y="-205.3" font-family="Arial" font-size="14.00" fill="#000000">    </text>
<text text-anchor="start" x="400.9408" y="-205.3" font-family="Arial" font-size="14.00" fill="#666666">[BASE TABLE]</text>
<polygon fill="none" stroke="#000000" points="166,-162.5 166,-192.5 501,-192.5 501,-162.5 166,-162.5"/>
<text text-anchor="start" x="173" y="-173.9" font-family="Arial" font-size="14.00" fill="#000000">question_text    </text>
<text text-anchor="start" x="290.4614" y="-173.9" font-family="Arial" font-size="14.00" fill="#666666">[varchar]</text>
<polygon fill="none" stroke="#000000" points="166,-132.5 166,-162.5 501,-162.5 501,-132.5 166,-132.5"/>
<text text-anchor="start" x="173" y="-143.9" font-family="Arial" font-size="14.00" fill="#000000">created_at    </text>
<text text-anchor="start" x="273.3422" y="-143.9" font-family="Arial" font-size="14.00" fill="#666666">[timestamp without time zone]</text>
<polygon fill="none" stroke="#000000" points="166,-102.5 166,-132.5 501,-132.5 501,-102.5 166,-102.5"/>
<text text-anchor="start" x="173" y="-113.9" font-family="Arial" font-size="14.00" fill="#000000">updated_at    </text>
<text text-anchor="start" x="277.2468" y="-113.9" font-family="Arial" font-size="14.00" fill="#666666">[timestamp without time zone]</text>
<polygon fill="none" stroke="#000000" points="166,-72.5 166,-102.5 501,-102.5 501,-72.5 166,-72.5"/>
<text text-anchor="start" x="173" y="-83.9" font-family="Arial" font-size="14.00" fill="#000000">deleted_at    </text>
<text text-anchor="start" x="272.5708" y="-83.9" font-family="Arial" font-size="14.00" fill="#666666">[timestamp without time zone]</text>
<polygon fill="none" stroke="#000000" points="166,-42.5 166,-72.5 501,-72.5 501,-42.5 166,-42.5"/>
<text text-anchor="start" x="173" y="-53.9" font-family="Arial" font-size="14.00" fill="#000000">id    </text>
<text text-anchor="start" x="218.094" y="-53.9" font-family="Arial" font-size="14.00" fill="#666666">[integer]</text>
</g>
<!-- public.userquestionanswersetcolor&#45;&gt;public.userquestioncolor -->
<g id="edge1" class="edge">
<title>public.userquestionanswersetcolor:user_question_id&#45;&gt;public.userquestioncolor:id</title>
<path fill="none" stroke="#000000" d="M325.1059,-396.0111C297.6757,-386.647 312.1188,-335.3753 335,-307 382.3882,-248.2333 453.6118,-329.7667 501,-271 530.7817,-234.0673 548.4444,-57.5 501,-57.5"/>
<polygon fill="#000000" stroke="#000000" points="325.1113,-396.0118 334.3303,-401.9499 330.0557,-396.7559 335,-397.5 335,-397.5 335,-397.5 330.0557,-396.7559 335.6697,-393.0501 325.1113,-396.0118 325.1113,-396.0118"/>
<text text-anchor="start" x="7.429" y="-407.5" font-family="Arial" font-size="10.00" fill="#000000">FOREIGN KEY (user_question_id) REFERENCES userquestioncolor(id)</text>
</g>
<!-- public.color -->
<g id="node3" class="node">
<title>public.color</title>
<polygon fill="#efefef" stroke="transparent" points="605,-192.5 605,-227.5 904,-227.5 904,-192.5 605,-192.5"/>
<polygon fill="none" stroke="#000000" points="605,-192.5 605,-227.5 904,-227.5 904,-192.5 605,-192.5"/>
<text text-anchor="start" x="645.212" y="-205.3" font-family="Arial Bold" font-size="18.00" fill="#000000">public.color</text>
<text text-anchor="start" x="736.22" y="-205.3" font-family="Arial" font-size="14.00" fill="#000000">    </text>
<text text-anchor="start" x="770.4248" y="-205.3" font-family="Arial" font-size="14.00" fill="#666666">[BASE TABLE]</text>
<polygon fill="none" stroke="#000000" points="605,-162.5 605,-192.5 904,-192.5 904,-162.5 605,-162.5"/>
<text text-anchor="start" x="612" y="-173.9" font-family="Arial" font-size="14.00" fill="#000000">id    </text>
<text text-anchor="start" x="657.094" y="-173.9" font-family="Arial" font-size="14.00" fill="#666666">[integer]</text>
<polygon fill="none" stroke="#000000" points="605,-132.5 605,-162.5 904,-162.5 904,-132.5 605,-132.5"/>
<text text-anchor="start" x="612" y="-143.9" font-family="Arial" font-size="14.00" fill="#000000">label    </text>
<text text-anchor="start" x="675.7658" y="-143.9" font-family="Arial" font-size="14.00" fill="#666666">[varchar]</text>
<polygon fill="none" stroke="#000000" points="605,-102.5 605,-132.5 904,-132.5 904,-102.5 605,-102.5"/>
<text text-anchor="start" x="612" y="-113.9" font-family="Arial" font-size="14.00" fill="#000000">color    </text>
<text text-anchor="start" x="676.5372" y="-113.9" font-family="Arial" font-size="14.00" fill="#666666">[varchar]</text>
<polygon fill="none" stroke="#000000" points="605,-72.5 605,-102.5 904,-102.5 904,-72.5 605,-72.5"/>
<text text-anchor="start" x="611.7588" y="-83.9" font-family="Arial" font-size="14.00" fill="#000000">created_at    </text>
<text text-anchor="start" x="712.101" y="-83.9" font-family="Arial" font-size="14.00" fill="#666666">[timestamp without time zone]</text>
<polygon fill="none" stroke="#000000" points="605,-42.5 605,-72.5 904,-72.5 904,-42.5 605,-42.5"/>
<text text-anchor="start" x="612" y="-53.9" font-family="Arial" font-size="14.00" fill="#000000">deleted_at    </text>
<text text-anchor="start" x="711.5708" y="-53.9" font-family="Arial" font-size="14.00" fill="#666666">[timestamp without time zone]</text>
</g>
<!-- public.userquestionanswersetcolor&#45;&gt;public.color -->
<g id="edge2" class="edge">
<title>public.userquestionanswersetcolor:color_id&#45;&gt;public.color:id</title>
<path fill="none" stroke="#000000" d="M761.9988,-364.8377C775.5192,-355.6485 766.0051,-324.8488 752,-307 710.4776,-254.0818 646.5224,-323.9182 605,-271 579.3475,-238.3073 563.4444,-177.5 605,-177.5"/>
<polygon fill="#000000" stroke="#000000" points="761.6633,-364.927 750.8421,-363.1515 756.8317,-366.2135 752,-367.5 752,-367.5 752,-367.5 756.8317,-366.2135 753.1579,-371.8485 761.6633,-364.927 761.6633,-364.927"/>
<text text-anchor="start" x="758.6155" y="-377.5" font-family="Arial" font-size="10.00" fill="#000000">FOREIGN KEY (color_id) REFERENCES color(id)</text>
</g>
</g>
</svg>
