<?xml version="1.0" encoding="UTF-8" standalone="no"?>
<!DOCTYPE svg PUBLIC "-//W3C//DTD SVG 1.1//EN"
 "http://www.w3.org/Graphics/SVG/1.1/DTD/svg11.dtd">
<!-- Generated by graphviz version 2.40.1 (20161225.0304)
 -->
<!-- Title: public.userquestioncolor Pages: 1 -->
<svg width="918pt" height="652pt"
 viewBox="0.00 0.00 918.00 652.00" xmlns="http://www.w3.org/2000/svg" xmlns:xlink="http://www.w3.org/1999/xlink">
<g id="graph0" class="graph" transform="scale(1 1) rotate(0) translate(4 648)">
<title>public.userquestioncolor</title>
<polygon fill="#ffffff" stroke="transparent" points="-4,4 -4,-648 914,-648 914,4 -4,4"/>
<!-- public.userquestioncolor -->
<g id="node1" class="node">
<title>public.userquestioncolor</title>
<polygon fill="#efefef" stroke="transparent" points="259.5,-195.5 259.5,-230.5 594.5,-230.5 594.5,-195.5 259.5,-195.5"/>
<polygon fill="none" stroke="#000000" points="259.5,-195.5 259.5,-230.5 594.5,-230.5 594.5,-195.5 259.5,-195.5"/>
<text text-anchor="start" x="266.196" y="-208.3" font-family="Arial Bold" font-size="18.00" fill="#000000">public.userquestioncolor</text>
<text text-anchor="start" x="460.236" y="-208.3" font-family="Arial" font-size="14.00" fill="#000000">    </text>
<text text-anchor="start" x="494.4408" y="-208.3" font-family="Arial" font-size="14.00" fill="#666666">[BASE TABLE]</text>
<polygon fill="none" stroke="#000000" points="259.5,-165.5 259.5,-195.5 594.5,-195.5 594.5,-165.5 259.5,-165.5"/>
<text text-anchor="start" x="266.5" y="-176.9" font-family="Arial" font-size="14.00" fill="#000000">question_text </text>
<text text-anchor="start" x="353.6472" y="-176.9" font-family="Arial" font-size="14.00" fill="#666666">[varchar]</text>
<polygon fill="none" stroke="#000000" points="259.5,-135.5 259.5,-165.5 594.5,-165.5 594.5,-135.5 259.5,-135.5"/>
<text text-anchor="start" x="266.5" y="-146.9" font-family="Arial" font-size="14.00" fill="#000000">created_at </text>
<text text-anchor="start" x="336.528" y="-146.9" font-family="Arial" font-size="14.00" fill="#666666">[timestamp without time zone]</text>
<polygon fill="none" stroke="#000000" points="259.5,-105.5 259.5,-135.5 594.5,-135.5 594.5,-105.5 259.5,-105.5"/>
<text text-anchor="start" x="266.5" y="-116.9" font-family="Arial" font-size="14.00" fill="#000000">updated_at </text>
<text text-anchor="start" x="340.4326" y="-116.9" font-family="Arial" font-size="14.00" fill="#666666">[timestamp without time zone]</text>
<polygon fill="none" stroke="#000000" points="259.5,-75.5 259.5,-105.5 594.5,-105.5 594.5,-75.5 259.5,-75.5"/>
<text text-anchor="start" x="266.5" y="-86.9" font-family="Arial" font-size="14.00" fill="#000000">deleted_at </text>
<text text-anchor="start" x="335.7566" y="-86.9" font-family="Arial" font-size="14.00" fill="#666666">[timestamp without time zone]</text>
<polygon fill="none" stroke="#000000" points="259.5,-45.5 259.5,-75.5 594.5,-75.5 594.5,-45.5 259.5,-45.5"/>
<text text-anchor="start" x="266.5" y="-56.9" font-family="Arial" font-size="14.00" fill="#000000">id </text>
<text text-anchor="start" x="281.2798" y="-56.9" font-family="Arial" font-size="14.00" fill="#666666">[integer]</text>
<polygon fill="none" stroke="#000000" stroke-width="3" points="257.5,-44.5 257.5,-232.5 595.5,-232.5 595.5,-44.5 257.5,-44.5"/>
</g>
<!-- public.userdatacolor -->
<g id="node2" class="node">
<title>public.userdatacolor</title>
<polygon fill="#efefef" stroke="transparent" points="43.5,-565.5 43.5,-600.5 346.5,-600.5 346.5,-565.5 43.5,-565.5"/>
<polygon fill="none" stroke="#000000" points="43.5,-565.5 43.5,-600.5 346.5,-600.5 346.5,-565.5 43.5,-565.5"/>
<text text-anchor="start" x="50.6993" y="-578.3" font-family="Arial Bold" font-size="18.00" fill="#000000">public.userdatacolor</text>
<text text-anchor="start" x="211.7327" y="-578.3" font-family="Arial" font-size="14.00" fill="#000000">    </text>
<text text-anchor="start" x="245.9375" y="-578.3" font-family="Arial" font-size="14.00" fill="#666666">[BASE TABLE]</text>
<polygon fill="none" stroke="#000000" points="43.5,-535.5 43.5,-565.5 346.5,-565.5 346.5,-535.5 43.5,-535.5"/>
<text text-anchor="start" x="50.5" y="-546.9" font-family="Arial" font-size="14.00" fill="#000000">value    </text>
<text text-anchor="start" x="118.1592" y="-546.9" font-family="Arial" font-size="14.00" fill="#666666">[varchar]</text>
<polygon fill="none" stroke="#000000" points="43.5,-505.5 43.5,-535.5 346.5,-535.5 346.5,-505.5 43.5,-505.5"/>
<text text-anchor="start" x="50.5" y="-516.9" font-family="Arial" font-size="14.00" fill="#000000">for_date    </text>
<text text-anchor="start" x="136.0596" y="-516.9" font-family="Arial" font-size="14.00" fill="#666666">[timestamp without time zone]</text>
<polygon fill="none" stroke="#000000" points="43.5,-475.5 43.5,-505.5 346.5,-505.5 346.5,-475.5 43.5,-475.5"/>
<text text-anchor="start" x="50.5" y="-486.9" font-family="Arial" font-size="14.00" fill="#000000">created_at    </text>
<text text-anchor="start" x="150.8422" y="-486.9" font-family="Arial" font-size="14.00" fill="#666666">[timestamp without time zone]</text>
<polygon fill="none" stroke="#000000" points="43.5,-445.5 43.5,-475.5 346.5,-475.5 346.5,-445.5 43.5,-445.5"/>
<text text-anchor="start" x="50.3065" y="-456.9" font-family="Arial" font-size="14.00" fill="#000000">updated_at    </text>
<text text-anchor="start" x="154.5533" y="-456.9" font-family="Arial" font-size="14.00" fill="#666666">[timestamp without time zone]</text>
<polygon fill="none" stroke="#000000" points="43.5,-415.5 43.5,-445.5 346.5,-445.5 346.5,-415.5 43.5,-415.5"/>
<text text-anchor="start" x="50.5" y="-426.9" font-family="Arial" font-size="14.00" fill="#000000">deleted_at    </text>
<text text-anchor="start" x="150.0708" y="-426.9" font-family="Arial" font-size="14.00" fill="#666666">[timestamp without time zone]</text>
<polygon fill="none" stroke="#000000" points="43.5,-385.5 43.5,-415.5 346.5,-415.5 346.5,-385.5 43.5,-385.5"/>
<text text-anchor="start" x="50.5" y="-396.9" font-family="Arial" font-size="14.00" fill="#000000">id    </text>
<text text-anchor="start" x="95.594" y="-396.9" font-family="Arial" font-size="14.00" fill="#666666">[integer]</text>
<polygon fill="none" stroke="#000000" points="43.5,-355.5 43.5,-385.5 346.5,-385.5 346.5,-355.5 43.5,-355.5"/>
<text text-anchor="start" x="50.5" y="-366.9" font-family="Arial" font-size="14.00" fill="#000000">user_question_id    </text>
<text text-anchor="start" x="191.2952" y="-366.9" font-family="Arial" font-size="14.00" fill="#666666">[integer]</text>
</g>
<!-- public.userdatacolor&#45;&gt;public.userquestioncolor -->
<g id="edge1" class="edge">
<title>public.userdatacolor:user_question_id&#45;&gt;public.userquestioncolor:id</title>
<path fill="none" stroke="#000000" d="M356.2481,-367.7989C368.2534,-359.0082 358.3717,-330.7604 346.5,-313 323.2452,-278.2103 282.7548,-311.7897 259.5,-277 206.0274,-197.0037 163.2778,-60.5 259.5,-60.5"/>
<polygon fill="#000000" stroke="#000000" points="356.1369,-367.8296 345.2983,-366.1634 351.3184,-369.1648 346.5,-370.5 346.5,-370.5 346.5,-370.5 351.3184,-369.1648 347.7017,-374.8366 356.1369,-367.8296 356.1369,-367.8296"/>
<text text-anchor="start" x="353.929" y="-354.5" font-family="Arial" font-size="10.00" fill="#000000">FOREIGN KEY (user_question_id) REFERENCES userquestioncolor(id)</text>
</g>
<!-- public.userquestionanswersetcolor -->
<g id="node3" class="node">
<title>public.userquestionanswersetcolor</title>
<polygon fill="#efefef" stroke="transparent" points="450.5,-505.5 450.5,-540.5 867.5,-540.5 867.5,-505.5 450.5,-505.5"/>
<polygon fill="none" stroke="#000000" points="450.5,-505.5 450.5,-540.5 867.5,-540.5 867.5,-505.5 450.5,-505.5"/>
<text text-anchor="start" x="457.1893" y="-518.3" font-family="Arial Bold" font-size="18.00" fill="#000000">public.userquestionanswersetcolor</text>
<text text-anchor="start" x="733.2427" y="-518.3" font-family="Arial" font-size="14.00" fill="#000000">    </text>
<text text-anchor="start" x="767.4475" y="-518.3" font-family="Arial" font-size="14.00" fill="#666666">[BASE TABLE]</text>
<polygon fill="none" stroke="#000000" points="450.5,-475.5 450.5,-505.5 867.5,-505.5 867.5,-475.5 450.5,-475.5"/>
<text text-anchor="start" x="457.5" y="-486.9" font-family="Arial" font-size="14.00" fill="#000000">id    </text>
<text text-anchor="start" x="502.594" y="-486.9" font-family="Arial" font-size="14.00" fill="#666666">[integer]</text>
<polygon fill="none" stroke="#000000" points="450.5,-445.5 450.5,-475.5 867.5,-475.5 867.5,-445.5 450.5,-445.5"/>
<text text-anchor="start" x="457.5" y="-456.9" font-family="Arial" font-size="14.00" fill="#000000">user_question_id    </text>
<text text-anchor="start" x="598.2952" y="-456.9" font-family="Arial" font-size="14.00" fill="#666666">[integer]</text>
<polygon fill="none" stroke="#000000" points="450.5,-415.5 450.5,-445.5 867.5,-445.5 867.5,-415.5 450.5,-415.5"/>
<text text-anchor="start" x="457.5" y="-426.9" font-family="Arial" font-size="14.00" fill="#000000">color_id    </text>
<text text-anchor="start" x="540.709" y="-426.9" font-family="Arial" font-size="14.00" fill="#666666">[integer]</text>
</g>
<!-- public.userquestionanswersetcolor&#45;&gt;public.userquestioncolor -->
<g id="edge2" class="edge">
<title>public.userquestionanswersetcolor:user_question_id&#45;&gt;public.userquestioncolor:id</title>
<path fill="none" stroke="#000000" d="M440.4255,-458.9289C415.7605,-449.8864 434.0136,-403.805 450.5,-373 486.7946,-305.183 558.2054,-344.817 594.5,-277 639.9032,-192.1633 690.7222,-60.5 594.5,-60.5"/>
<polygon fill="#000000" stroke="#000000" points="440.6194,-458.9591 449.8066,-464.9463 445.5597,-459.7295 450.5,-460.5 450.5,-460.5 450.5,-460.5 445.5597,-459.7295 451.1934,-456.0537 440.6194,-458.9591 440.6194,-458.9591"/>
<text text-anchor="start" x="457.929" y="-470.5" font-family="Arial" font-size="10.00" fill="#000000">FOREIGN KEY (user_question_id) REFERENCES userquestioncolor(id)</text>
</g>
</g>
</svg>
