<?xml version="1.0" encoding="UTF-8" standalone="no"?>
<!DOCTYPE svg PUBLIC "-//W3C//DTD SVG 1.1//EN"
 "http://www.w3.org/Graphics/SVG/1.1/DTD/svg11.dtd">
<!-- Generated by graphviz version 2.40.1 (20161225.0304)
 -->
<!-- Title: public.color Pages: 1 -->
<svg width="511pt" height="532pt"
 viewBox="0.00 0.00 511.00 532.00" xmlns="http://www.w3.org/2000/svg" xmlns:xlink="http://www.w3.org/1999/xlink">
<g id="graph0" class="graph" transform="scale(1 1) rotate(0) translate(4 528)">
<title>public.color</title>
<polygon fill="#ffffff" stroke="transparent" points="-4,4 -4,-528 507,-528 507,4 -4,4"/>
<!-- public.color -->
<g id="node1" class="node">
<title>public.color</title>
<polygon fill="#efefef" stroke="transparent" points="117.5,-195.5 117.5,-230.5 386.5,-230.5 386.5,-195.5 117.5,-195.5"/>
<polygon fill="none" stroke="#000000" points="117.5,-195.5 117.5,-230.5 386.5,-230.5 386.5,-195.5 117.5,-195.5"/>
<text text-anchor="start" x="142.712" y="-208.3" font-family="Arial Bold" font-size="18.00" fill="#000000">public.color</text>
<text text-anchor="start" x="233.72" y="-208.3" font-family="Arial" font-size="14.00" fill="#000000">    </text>
<text text-anchor="start" x="267.9248" y="-208.3" font-family="Arial" font-size="14.00" fill="#666666">[BASE TABLE]</text>
<polygon fill="none" stroke="#000000" points="117.5,-165.5 117.5,-195.5 386.5,-195.5 386.5,-165.5 117.5,-165.5"/>
<text text-anchor="start" x="124.5" y="-176.9" font-family="Arial" font-size="14.00" fill="#000000">id </text>
<text text-anchor="start" x="139.2798" y="-176.9" font-family="Arial" font-size="14.00" fill="#666666">[integer]</text>
<polygon fill="none" stroke="#000000" points="117.5,-135.5 117.5,-165.5 386.5,-165.5 386.5,-135.5 117.5,-135.5"/>
<text text-anchor="start" x="124.5" y="-146.9" font-family="Arial" font-size="14.00" fill="#000000">label </text>
<text text-anchor="start" x="157.9516" y="-146.9" font-family="Arial" font-size="14.00" fill="#666666">[varchar]</text>
<polygon fill="none" stroke="#000000" points="117.5,-105.5 117.5,-135.5 386.5,-135.5 386.5,-105.5 117.5,-105.5"/>
<text text-anchor="start" x="124.5" y="-116.9" font-family="Arial" font-size="14.00" fill="#000000">color </text>
<text text-anchor="start" x="158.723" y="-116.9" font-family="Arial" font-size="14.00" fill="#666666">[varchar]</text>
<polygon fill="none" stroke="#000000" points="117.5,-75.5 117.5,-105.5 386.5,-105.5 386.5,-75.5 117.5,-75.5"/>
<text text-anchor="start" x="124.4159" y="-86.9" font-family="Arial" font-size="14.00" fill="#000000">created_at </text>
<text text-anchor="start" x="194.4439" y="-86.9" font-family="Arial" font-size="14.00" fill="#666666">[timestamp without time zone]</text>
<polygon fill="none" stroke="#000000" points="117.5,-45.5 117.5,-75.5 386.5,-75.5 386.5,-45.5 117.5,-45.5"/>
<text text-anchor="start" x="124.5" y="-56.9" font-family="Arial" font-size="14.00" fill="#000000">deleted_at </text>
<text text-anchor="start" x="193.7566" y="-56.9" font-family="Arial" font-size="14.00" fill="#666666">[timestamp without time zone]</text>
<polygon fill="none" stroke="#000000" stroke-width="3" points="115.5,-44.5 115.5,-232.5 387.5,-232.5 387.5,-44.5 115.5,-44.5"/>
</g>
<!-- public.userquestionanswersetcolor -->
<g id="node2" class="node">
<title>public.userquestionanswersetcolor</title>
<polygon fill="#efefef" stroke="transparent" points="43.5,-445.5 43.5,-480.5 460.5,-480.5 460.5,-445.5 43.5,-445.5"/>
<polygon fill="none" stroke="#000000" points="43.5,-445.5 43.5,-480.5 460.5,-480.5 460.5,-445.5 43.5,-445.5"/>
<text text-anchor="start" x="50.1893" y="-458.3" font-family="Arial Bold" font-size="18.00" fill="#000000">public.userquestionanswersetcolor</text>
<text text-anchor="start" x="326.2427" y="-458.3" font-family="Arial" font-size="14.00" fill="#000000">    </text>
<text text-anchor="start" x="360.4475" y="-458.3" font-family="Arial" font-size="14.00" fill="#666666">[BASE TABLE]</text>
<polygon fill="none" stroke="#000000" points="43.5,-415.5 43.5,-445.5 460.5,-445.5 460.5,-415.5 43.5,-415.5"/>
<text text-anchor="start" x="50.5" y="-426.9" font-family="Arial" font-size="14.00" fill="#000000">id    </text>
<text text-anchor="start" x="95.594" y="-426.9" font-family="Arial" font-size="14.00" fill="#666666">[integer]</text>
<polygon fill="none" stroke="#000000" points="43.5,-385.5 43.5,-415.5 460.5,-415.5 460.5,-385.5 43.5,-385.5"/>
<text text-anchor="start" x="50.5" y="-396.9" font-family="Arial" font-size="14.00" fill="#000000">user_question_id    </text>
<text text-anchor="start" x="191.2952" y="-396.9" font-family="Arial" font-size="14.00" fill="#666666">[integer]</text>
<polygon fill="none" stroke="#000000" points="43.5,-355.5 43.5,-385.5 460.5,-385.5 460.5,-355.5 43.5,-355.5"/>
<text text-anchor="start" x="50.5" y="-366.9" font-family="Arial" font-size="14.00" fill="#000000">color_id    </text>
<text text-anchor="start" x="133.709" y="-366.9" font-family="Arial" font-size="14.00" fill="#666666">[integer]</text>
</g>
<!-- public.userquestionanswersetcolor&#45;&gt;public.color -->
<g id="edge1" class="edge">
<title>public.userquestionanswersetcolor:color_id&#45;&gt;public.color:id</title>
<path fill="none" stroke="#000000" d="M251.6868,-345.4908C242.0949,-291.1704 150.285,-333.9886 117.5,-277 96.113,-239.824 74.6111,-180.5 117.5,-180.5"/>
<polygon fill="#000000" stroke="#000000" points="251.6902,-345.5328 248.0148,-355.8644 252.0951,-350.5164 252.5,-355.5 252.5,-355.5 252.5,-355.5 252.0951,-350.5164 256.9852,-355.1356 251.6902,-345.5328 251.6902,-345.5328"/>
<text text-anchor="start" x="23.1155" y="-365.5" font-family="Arial" font-size="10.00" fill="#000000">FOREIGN KEY (color_id) REFERENCES color(id)</text>
</g>
</g>
</svg>
