<?xml version="1.0" encoding="UTF-8" standalone="no"?>
<!DOCTYPE svg PUBLIC "-//W3C//DTD SVG 1.1//EN"
 "http://www.w3.org/Graphics/SVG/1.1/DTD/svg11.dtd">
<!-- Generated by graphviz version 2.40.1 (20161225.0304)
 -->
<!-- Title: foo Pages: 1 -->
<svg width="1487pt" height="664pt"
 viewBox="0.00 0.00 1486.50 663.96" xmlns="http://www.w3.org/2000/svg" xmlns:xlink="http://www.w3.org/1999/xlink">
<g id="graph0" class="graph" transform="scale(1 1) rotate(0) translate(4 659.9587)">
<title>foo</title>
<polygon fill="#ffffff" stroke="transparent" points="-4,4 -4,-659.9587 1482.5,-659.9587 1482.5,4 -4,4"/>
<!-- public.alembic_version -->
<g id="node1" class="node">
<title>public.alembic_version</title>
<polygon fill="#efefef" stroke="transparent" points="43.5,-487.4587 43.5,-522.4587 366.5,-522.4587 366.5,-487.4587 43.5,-487.4587"/>
<polygon fill="none" stroke="#000000" points="43.5,-487.4587 43.5,-522.4587 366.5,-522.4587 366.5,-487.4587 43.5,-487.4587"/>
<text text-anchor="start" x="50.2062" y="-500.2587" font-family="Arial Bold" font-size="18.00" fill="#000000">public.alembic_version</text>
<text text-anchor="start" x="232.2258" y="-500.2587" font-family="Arial" font-size="14.00" fill="#000000">    </text>
<text text-anchor="start" x="266.4306" y="-500.2587" font-family="Arial" font-size="14.00" fill="#666666">[BASE TABLE]</text>
<polygon fill="none" stroke="#000000" points="43.5,-457.4587 43.5,-487.4587 366.5,-487.4587 366.5,-457.4587 43.5,-457.4587"/>
<text text-anchor="start" x="50.5" y="-468.8587" font-family="Arial" font-size="14.00" fill="#000000">version_num    </text>
<text text-anchor="start" x="164.8282" y="-468.8587" font-family="Arial" font-size="14.00" fill="#666666">[varchar(32)]</text>
</g>
<!-- public.color -->
<g id="node2" class="node">
<title>public.color</title>
<polygon fill="#efefef" stroke="transparent" points="529.5,-210.4587 529.5,-245.4587 828.5,-245.4587 828.5,-210.4587 529.5,-210.4587"/>
<polygon fill="none" stroke="#000000" points="529.5,-210.4587 529.5,-245.4587 828.5,-245.4587 828.5,-210.4587 529.5,-210.4587"/>
<text text-anchor="start" x="569.712" y="-223.2587" font-family="Arial Bold" font-size="18.00" fill="#000000">public.color</text>
<text text-anchor="start" x="660.72" y="-223.2587" font-family="Arial" font-size="14.00" fill="#000000">    </text>
<text text-anchor="start" x="694.9248" y="-223.2587" font-family="Arial" font-size="14.00" fill="#666666">[BASE TABLE]</text>
<polygon fill="none" stroke="#000000" points="529.5,-180.4587 529.5,-210.4587 828.5,-210.4587 828.5,-180.4587 529.5,-180.4587"/>
<text text-anchor="start" x="536.5" y="-191.8587" font-family="Arial" font-size="14.00" fill="#000000">id    </text>
<text text-anchor="start" x="581.594" y="-191.8587" font-family="Arial" font-size="14.00" fill="#666666">[integer]</text>
<polygon fill="none" stroke="#000000" points="529.5,-150.4587 529.5,-180.4587 828.5,-180.4587 828.5,-150.4587 529.5,-150.4587"/>
<text text-anchor="start" x="536.5" y="-161.8587" font-family="Arial" font-size="14.00" fill="#000000">label    </text>
<text text-anchor="start" x="600.2658" y="-161.8587" font-family="Arial" font-size="14.00" fill="#666666">[varchar]</text>
<polygon fill="none" stroke="#000000" points="529.5,-120.4587 529.5,-150.4587 828.5,-150.4587 828.5,-120.4587 529.5,-120.4587"/>
<text text-anchor="start" x="536.5" y="-131.8587" font-family="Arial" font-size="14.00" fill="#000000">color    </text>
<text text-anchor="start" x="601.0372" y="-131.8587" font-family="Arial" font-size="14.00" fill="#666666">[varchar]</text>
<polygon fill="none" stroke="#000000" points="529.5,-90.4587 529.5,-120.4587 828.5,-120.4587 828.5,-90.4587 529.5,-90.4587"/>
<text text-anchor="start" x="536.2588" y="-101.8587" font-family="Arial" font-size="14.00" fill="#000000">created_at    </text>
<text text-anchor="start" x="636.601" y="-101.8587" font-family="Arial" font-size="14.00" fill="#666666">[timestamp without time zone]</text>
<polygon fill="none" stroke="#000000" points="529.5,-60.4587 529.5,-90.4587 828.5,-90.4587 828.5,-60.4587 529.5,-60.4587"/>
<text text-anchor="start" x="536.5" y="-71.8587" font-family="Arial" font-size="14.00" fill="#000000">deleted_at    </text>
<text text-anchor="start" x="636.0708" y="-71.8587" font-family="Arial" font-size="14.00" fill="#666666">[timestamp without time zone]</text>
</g>
<!-- public.userquestioncolor -->
<g id="node3" class="node">
<title>public.userquestioncolor</title>
<polygon fill="#efefef" stroke="transparent" points="953.5,-210.4587 953.5,-245.4587 1288.5,-245.4587 1288.5,-210.4587 953.5,-210.4587"/>
<polygon fill="none" stroke="#000000" points="953.5,-210.4587 953.5,-245.4587 1288.5,-245.4587 1288.5,-210.4587 953.5,-210.4587"/>
<text text-anchor="start" x="960.196" y="-223.2587" font-family="Arial Bold" font-size="18.00" fill="#000000">public.userquestioncolor</text>
<text text-anchor="start" x="1154.236" y="-223.2587" font-family="Arial" font-size="14.00" fill="#000000">    </text>
<text text-anchor="start" x="1188.4408" y="-223.2587" font-family="Arial" font-size="14.00" fill="#666666">[BASE TABLE]</text>
<polygon fill="none" stroke="#000000" points="953.5,-180.4587 953.5,-210.4587 1288.5,-210.4587 1288.5,-180.4587 953.5,-180.4587"/>
<text text-anchor="start" x="960.5" y="-191.8587" font-family="Arial" font-size="14.00" fill="#000000">question_text    </text>
<text text-anchor="start" x="1077.9614" y="-191.8587" font-family="Arial" font-size="14.00" fill="#666666">[varchar]</text>
<polygon fill="none" stroke="#000000" points="953.5,-150.4587 953.5,-180.4587 1288.5,-180.4587 1288.5,-150.4587 953.5,-150.4587"/>
<text text-anchor="start" x="960.5" y="-161.8587" font-family="Arial" font-size="14.00" fill="#000000">created_at    </text>
<text text-anchor="start" x="1060.8422" y="-161.8587" font-family="Arial" font-size="14.00" fill="#666666">[timestamp without time zone]</text>
<polygon fill="none" stroke="#000000" points="953.5,-120.4587 953.5,-150.4587 1288.5,-150.4587 1288.5,-120.4587 953.5,-120.4587"/>
<text text-anchor="start" x="960.5" y="-131.8587" font-family="Arial" font-size="14.00" fill="#000000">updated_at    </text>
<text text-anchor="start" x="1064.7468" y="-131.8587" font-family="Arial" font-size="14.00" fill="#666666">[timestamp without time zone]</text>
<polygon fill="none" stroke="#000000" points="953.5,-90.4587 953.5,-120.4587 1288.5,-120.4587 1288.5,-90.4587 953.5,-90.4587"/>
<text text-anchor="start" x="960.5" y="-101.8587" font-family="Arial" font-size="14.00" fill="#000000">deleted_at    </text>
<text text-anchor="start" x="1060.0708" y="-101.8587" font-family="Arial" font-size="14.00" fill="#666666">[timestamp without time zone]</text>
<polygon fill="none" stroke="#000000" points="953.5,-60.4587 953.5,-90.4587 1288.5,-90.4587 1288.5,-60.4587 953.5,-60.4587"/>
<text text-anchor="start" x="960.5" y="-71.8587" font-family="Arial" font-size="14.00" fill="#000000">id    </text>
<text text-anchor="start" x="1005.594" y="-71.8587" font-family="Arial" font-size="14.00" fill="#666666">[integer]</text>
</g>
<!-- public.userdatacolor -->
<g id="node4" class="node">
<title>public.userdatacolor</title>
<polygon fill="#efefef" stroke="transparent" points="991.5,-577.4587 991.5,-612.4587 1294.5,-612.4587 1294.5,-577.4587 991.5,-577.4587"/>
<polygon fill="none" stroke="#000000" points="991.5,-577.4587 991.5,-612.4587 1294.5,-612.4587 1294.5,-577.4587 991.5,-577.4587"/>
<text text-anchor="start" x="998.6993" y="-590.2587" font-family="Arial Bold" font-size="18.00" fill="#000000">public.userdatacolor</text>
<text text-anchor="start" x="1159.7327" y="-590.2587" font-family="Arial" font-size="14.00" fill="#000000">    </text>
<text text-anchor="start" x="1193.9375" y="-590.2587" font-family="Arial" font-size="14.00" fill="#666666">[BASE TABLE]</text>
<polygon fill="none" stroke="#000000" points="991.5,-547.4587 991.5,-577.4587 1294.5,-577.4587 1294.5,-547.4587 991.5,-547.4587"/>
<text text-anchor="start" x="998.5" y="-558.8587" font-family="Arial" font-size="14.00" fill="#000000">value    </text>
<text text-anchor="start" x="1066.1592" y="-558.8587" font-family="Arial" font-size="14.00" fill="#666666">[varchar]</text>
<polygon fill="none" stroke="#000000" points="991.5,-517.4587 991.5,-547.4587 1294.5,-547.4587 1294.5,-517.4587 991.5,-517.4587"/>
<text text-anchor="start" x="998.5" y="-528.8587" font-family="Arial" font-size="14.00" fill="#000000">for_date    </text>
<text text-anchor="start" x="1084.0596" y="-528.8587" font-family="Arial" font-size="14.00" fill="#666666">[timestamp without time zone]</text>
<polygon fill="none" stroke="#000000" points="991.5,-487.4587 991.5,-517.4587 1294.5,-517.4587 1294.5,-487.4587 991.5,-487.4587"/>
<text text-anchor="start" x="998.5" y="-498.8587" font-family="Arial" font-size="14.00" fill="#000000">created_at    </text>
<text text-anchor="start" x="1098.8422" y="-498.8587" font-family="Arial" font-size="14.00" fill="#666666">[timestamp without time zone]</text>
<polygon fill="none" stroke="#000000" points="991.5,-457.4587 991.5,-487.4587 1294.5,-487.4587 1294.5,-457.4587 991.5,-457.4587"/>
<text text-anchor="start" x="998.3065" y="-468.8587" font-family="Arial" font-size="14.00" fill="#000000">updated_at    </text>
<text text-anchor="start" x="1102.5533" y="-468.8587" font-family="Arial" font-size="14.00" fill="#666666">[timestamp without time zone]</text>
<polygon fill="none" stroke="#000000" points="991.5,-427.4587 991.5,-457.4587 1294.5,-457.4587 1294.5,-427.4587 991.5,-427.4587"/>
<text text-anchor="start" x="998.5" y="-438.8587" font-family="Arial" font-size="14.00" fill="#000000">deleted_at    </text>
<text text-anchor="start" x="1098.0708" y="-438.8587" font-family="Arial" font-size="14.00" fill="#666666">[timestamp without time zone]</text>
<polygon fill="none" stroke="#000000" points="991.5,-397.4587 991.5,-427.4587 1294.5,-427.4587 1294.5,-397.4587 991.5,-397.4587"/>
<text text-anchor="start" x="998.5" y="-408.8587" font-family="Arial" font-size="14.00" fill="#000000">id    </text>
<text text-anchor="start" x="1043.594" y="-408.8587" font-family="Arial" font-size="14.00" fill="#666666">[integer]</text>
<polygon fill="none" stroke="#000000" points="991.5,-367.4587 991.5,-397.4587 1294.5,-397.4587 1294.5,-367.4587 991.5,-367.4587"/>
<text text-anchor="start" x="998.5" y="-378.8587" font-family="Arial" font-size="14.00" fill="#000000">user_question_id    </text>
<text text-anchor="start" x="1139.2952" y="-378.8587" font-family="Arial" font-size="14.00" fill="#666666">[integer]</text>
</g>
<!-- public.userdatacolor&#45;&gt;public.userquestioncolor -->
<g id="edge1" class="edge">
<title>public.userdatacolor:user_question_id&#45;&gt;public.userquestioncolor:id</title>
<path fill="none" stroke="#000000" d="M1144.1782,-357.2143C1154.6283,-283.9849 1283.0041,-361.0856 1331,-288.9587 1359.1305,-246.6851 1366.9053,-96.364 1331,-60.4587 1265.1605,5.3808 1121.5,32.6524 1121.5,-60.4587"/>
<polygon fill="#000000" stroke="#000000" points="1144.1606,-357.4806 1139.0098,-367.1614 1143.8303,-362.4696 1143.5,-367.4587 1143.5,-367.4587 1143.5,-367.4587 1143.8303,-362.4696 1147.9902,-367.756 1144.1606,-357.4806 1144.1606,-357.4806"/>
<text text-anchor="start" x="1150.929" y="-377.4587" font-family="Arial" font-size="10.00" fill="#000000">FOREIGN KEY (user_question_id) REFERENCES userquestioncolor(id)</text>
</g>
<!-- public.userquestionanswersetcolor -->
<g id="node5" class="node">
<title>public.userquestionanswersetcolor</title>
<polygon fill="#efefef" stroke="transparent" points="470.5,-517.4587 470.5,-552.4587 887.5,-552.4587 887.5,-517.4587 470.5,-517.4587"/>
<polygon fill="none" stroke="#000000" points="470.5,-517.4587 470.5,-552.4587 887.5,-552.4587 887.5,-517.4587 470.5,-517.4587"/>
<text text-anchor="start" x="477.1893" y="-530.2587" font-family="Arial Bold" font-size="18.00" fill="#000000">public.userquestionanswersetcolor</text>
<text text-anchor="start" x="753.2427" y="-530.2587" font-family="Arial" font-size="14.00" fill="#000000">    </text>
<text text-anchor="start" x="787.4475" y="-530.2587" font-family="Arial" font-size="14.00" fill="#666666">[BASE TABLE]</text>
<polygon fill="none" stroke="#000000" points="470.5,-487.4587 470.5,-517.4587 887.5,-517.4587 887.5,-487.4587 470.5,-487.4587"/>
<text text-anchor="start" x="477.5" y="-498.8587" font-family="Arial" font-size="14.00" fill="#000000">id    </text>
<text text-anchor="start" x="522.594" y="-498.8587" font-family="Arial" font-size="14.00" fill="#666666">[integer]</text>
<polygon fill="none" stroke="#000000" points="470.5,-457.4587 470.5,-487.4587 887.5,-487.4587 887.5,-457.4587 470.5,-457.4587"/>
<text text-anchor="start" x="477.5" y="-468.8587" font-family="Arial" font-size="14.00" fill="#000000">user_question_id    </text>
<text text-anchor="start" x="618.2952" y="-468.8587" font-family="Arial" font-size="14.00" fill="#666666">[integer]</text>
<polygon fill="none" stroke="#000000" points="470.5,-427.4587 470.5,-457.4587 887.5,-457.4587 887.5,-427.4587 470.5,-427.4587"/>
<text text-anchor="start" x="477.5" y="-438.8587" font-family="Arial" font-size="14.00" fill="#000000">color_id    </text>
<text text-anchor="start" x="560.709" y="-438.8587" font-family="Arial" font-size="14.00" fill="#666666">[integer]</text>
</g>
<!-- public.userquestionanswersetcolor&#45;&gt;public.color -->
<g id="edge2" class="edge">
<title>public.userquestionanswersetcolor:color_id&#45;&gt;public.color:id</title>
<path fill="none" stroke="#000000" d="M678.9913,-417.3879C670.7418,-339.3018 564.4658,-368.8351 529.5,-288.9587 512.8358,-250.8908 487.9444,-195.4587 529.5,-195.4587"/>
<polygon fill="#000000" stroke="#000000" points="678.9954,-417.4714 675.0057,-427.6858 679.2477,-422.4651 679.5,-427.4587 679.5,-427.4587 679.5,-427.4587 679.2477,-422.4651 683.9943,-427.2317 678.9954,-417.4714 678.9954,-417.4714"/>
<text text-anchor="start" x="450.1155" y="-437.4587" font-family="Arial" font-size="10.00" fill="#000000">FOREIGN KEY (color_id) REFERENCES color(id)</text>
</g>
<!-- public.userquestionanswersetcolor&#45;&gt;public.userquestioncolor -->
<g id="edge3" class="edge">
<title>public.userquestionanswersetcolor:user_question_id&#45;&gt;public.userquestioncolor:id</title>
<path fill="none" stroke="#000000" d="M897.5114,-470.5099C968.0148,-440.5602 867.7351,-75.4587 953.5,-75.4587"/>
<polygon fill="#000000" stroke="#000000" points="897.3158,-470.5479 886.6401,-468.0416 892.4079,-471.5033 887.5,-472.4587 887.5,-472.4587 887.5,-472.4587 892.4079,-471.5033 888.3599,-476.8758 897.3158,-470.5479 897.3158,-470.5479"/>
<text text-anchor="start" x="894.929" y="-482.4587" font-family="Arial" font-size="10.00" fill="#000000">FOREIGN KEY (user_question_id) REFERENCES userquestioncolor(id)</text>
</g>
</g>
</svg>
